<?xml version="1.0" encoding="utf-8"?>
<!-- Generator: Adobe Illustrator 19.2.1, SVG Export Plug-In . SVG Version: 6.00 Build 0)  -->
<!DOCTYPE svg PUBLIC "-//W3C//DTD SVG 1.1//EN" "http://www.w3.org/Graphics/SVG/1.1/DTD/svg11.dtd">
<svg version="1.1" id="Layer_1" xmlns="http://www.w3.org/2000/svg" xmlns:xlink="http://www.w3.org/1999/xlink" x="0px" y="0px"
	 viewBox="0 0 441.7 29.8" style="enable-background:new 0 0 441.7 29.8;" xml:space="preserve">
<style type="text/css">
	.st0{fill:#E2E2E2;}
</style>
<g>
	<g>
		<path class="st0" d="M345.8,29.8c-3.1,0-5.8-2.6-5.8-5.8V5.8c0-3.1,2.6-5.8,5.8-5.8h31c3.1,0,5.6,2.4,5.8,5.5V24
			c0,3.1-2.4,5.6-5.5,5.8l0,0H345.8z M345.8,5c-0.4,0-0.8,0.4-0.8,0.8V24c0,0.5,0.4,0.8,0.8,0.8h31c0.5,0,0.8-0.4,0.8-0.8V5.8
			c0-0.4-0.4-0.8-0.8-0.8H345.8z"/>
		<path class="st0" d="M376.7,0.9c2.7,0,4.9,2.1,5,4.8v18.4c0,2.7-2.1,4.9-4.8,5h-31.1c-2.8,0-5-2.3-5-5V5.9c0-2.8,2.3-5,5-5H376.7z
			 M376.7,25.6c0.9,0,1.6-0.7,1.6-1.6l0,0V5.8c0-0.8-0.7-1.5-1.5-1.6h-31c-0.8,0-1.5,0.7-1.6,1.5v18.2c0,0.9,0.7,1.6,1.6,1.6
			L376.7,25.6L376.7,25.6z"/>
	</g>
	<g>
		<path class="st0" d="M286.8,29.5c-3.1,0-5.8-2.6-5.8-5.8V6.2c0-3.1,2.6-5.8,5.8-5.8H317c2.4,0,4.5,1.4,5.3,3.6l0.5,1.4h-36
			c-0.5,0-0.8,0.4-0.8,0.8v17.5c0,0.5,0.4,0.8,0.8,0.8H317c0.5,0,0.8-0.4,0.8-0.8v-6.2h-15.9c-1.4,0-2.4-1.1-2.5-2.5
			c0-0.7,0.2-1.2,0.7-1.7s1.1-0.7,1.8-0.7h20.9v11.2c0,3.1-2.6,5.8-5.8,5.8L286.8,29.5L286.8,29.5z"/>
		<path class="st0" d="M300.2,15c0-1,0.8-1.7,1.7-1.7l0,0H322v10.5c0,2.8-2.2,5-5,5h-30.2c-2.8,0-5-2.3-5-5V6.3c0-2.8,2.3-5,5-5H317
			c2.1,0,3.9,1.2,4.7,3.1l0,0l0.1,0.4h-35c-0.9,0-1.6,0.7-1.6,1.6v17.5c0,0.9,0.7,1.6,1.5,1.6h30.2c0.9,0,1.5-0.7,1.5-1.5v-7h-16.6
			C300.9,16.7,300.2,15.9,300.2,15z"/>
	</g>
	<g id="A_6_">
		<g>
			<g>
				<path class="st0" d="M232.8,17.4c-1.4,0-2.4-1.1-2.4-2.4c0-1.4,1.1-2.4,2.4-2.4h19.4c1.4,0,2.4,1.1,2.4,2.4
					c0,1.4-1.1,2.4-2.4,2.4H232.8z"/>
				<path class="st0" d="M254,15c0,1-0.8,1.7-1.7,1.7h-19.5c-1,0-1.7-0.8-1.7-1.7c0-1,0.8-1.7,1.7-1.7h19.4
					C253.2,13.2,254,14,254,15z"/>
			</g>
		</g>
		<g>
			<path class="st0" d="M258.5,29.5V6.3c0-0.5-0.4-0.8-0.8-0.8h-30.2c-0.5,0-0.8,0.4-0.8,0.8v23.2h-4.9V6.3c0-3.1,2.6-5.8,5.8-5.8
				h30.2c3.1,0,5.7,2.6,5.8,5.8v23.2H258.5z"/>
			<path class="st0" d="M262.5,28.7h-3.4l0,0V6.3c0-0.9-0.7-1.6-1.5-1.6h-30.2c-0.9,0-1.6,0.7-1.6,1.6v22.4h-3.4V6.3
				c0-2.8,2.3-5,5-5h30.2c2.8,0,5,2.3,5,5v22.4H262.5z"/>
		</g>
	</g>
	<g>
		<path class="st0" d="M186.7,29.8V5.4h-18.9l0.6-1.4c0.9-2.1,3-3.5,5.3-3.5h31c2.3,0,4.4,1.4,5.3,3.5l0.6,1.4h-18.9v24.4H186.7z"/>
		<path class="st0" d="M187.4,29V4.6h-18.5l0.2-0.4c0.8-1.8,2.6-3.1,4.6-3.1h31c2.1,0,3.9,1.3,4.6,3.1l0,0l0.2,0.4H191V29H187.4z"/>
	</g>
	<g>
		<path class="st0" d="M399.8,29.5V4.4c0-2.1,1.8-3.9,3.9-3.9c1.1,0,2,0.5,2.5,0.9l30.4,22.2v-23h4.9v25.1c0,2.1-1.8,3.9-3.9,3.9
			c-0.8,0-1.6-0.2-2.3-0.8L404.7,6.5v23L399.8,29.5L399.8,29.5z"/>
		<path class="st0" d="M437.5,28.7c-0.7,0-1.4-0.2-1.9-0.6L403.9,4.9v23.8h-3.4l0,0V4.4c0-1.7,1.4-3.1,3.1-3.1
			c0.8,0,1.5,0.4,2.1,0.8l31.5,23V1.3h3.4v24.3C440.7,27.3,439.2,28.7,437.5,28.7z"/>
	</g>
	<g>
		<path class="st0" d="M114.9,29.5V4.4c0-2.1,1.8-3.9,3.9-3.9c1.1,0,2,0.5,2.5,0.9l30.4,22.2v-23h4.9v25.1c0,2.1-1.8,3.9-3.9,3.9
			c-0.8,0-1.6-0.2-2.3-0.8L119.8,6.5v23H114.9L114.9,29.5z"/>
		<path class="st0" d="M152.8,28.7c-0.7,0-1.4-0.2-1.9-0.6L119.1,4.9v23.8h-3.4l0,0V4.4c0-1.7,1.4-3.1,3.1-3.1
			c0.8,0,1.5,0.4,2.1,0.8l31.5,23V1.3h3.4v24.3C155.9,27.3,154.5,28.7,152.8,28.7z"/>
	</g>
	<g id="E_11_">
		<g>
			<path class="st0" d="M63.1,29.5c-3.1,0-5.8-2.6-5.8-5.8V6.2c0-3.1,2.6-5.8,5.8-5.8h30.2c2.3,0,4.5,1.4,5.3,3.5l0.6,1.4H63.1
				c-0.5,0-0.8,0.4-0.8,0.8v17.4c0,0.5,0.4,0.8,0.8,0.8h36.1l-0.6,1.4c-0.9,2.1-3,3.6-5.3,3.6L63.1,29.5L63.1,29.5z"/>
			<path class="st0" d="M63.1,28.7c-2.8,0-5-2.3-5-5V6.2c0-2.8,2.3-5,5-5h30.2c2.1,0,3.9,1.2,4.6,3.1l0,0l0.2,0.4h-35
				c-0.9,0-1.5,0.7-1.6,1.6v17.4c0,0.9,0.7,1.6,1.6,1.6h35l-0.2,0.4c-0.8,1.8-2.6,3.1-4.6,3.1l0,0L63.1,28.7L63.1,28.7z"/>
		</g>
		<g>
			<path class="st0" d="M68.4,17.4c-1.5,0-2.4-1.2-2.4-2.4c0-1.4,1.1-2.4,2.4-2.4h19.4c1.4,0,2.4,1.1,2.4,2.4c0,1.4-1.1,2.4-2.4,2.4
				H68.4z"/>
			<path class="st0" d="M68.4,16.7c-1.1,0-1.7-0.9-1.7-1.7l0,0c0-1,0.8-1.7,1.7-1.7h19.4c1,0,1.7,0.7,1.7,1.7c0,0.8-0.7,1.7-1.7,1.7
				H68.4z"/>
		</g>
	</g>
	<g>
		<path class="st0" d="M6.1,29.5c-3.1,0-5.8-2.6-5.8-5.8V6.2c0-3.1,2.6-5.8,5.8-5.8h30.2c2.3,0,4.5,1.4,5.3,3.5l0.6,1.4h-36
			c-0.5,0-0.8,0.4-0.8,0.8v17.4c0,0.5,0.4,0.8,0.8,0.8h36.1l-0.6,1.4c-0.9,2.1-3,3.6-5.3,3.6L6.1,29.5L6.1,29.5z"/>
		<path class="st0" d="M6.1,28.7c-2.8,0-5-2.3-5-5l0,0V6.3c0-2.8,2.3-5,5-5l0,0h30.2c2.1,0,3.9,1.2,4.6,3.1l0,0l0.2,0.4h-35
			c-0.9,0-1.5,0.7-1.6,1.6l0,0v17.4c0,0.9,0.7,1.6,1.6,1.6l0,0h35l-0.2,0.4c-0.8,1.8-2.6,3.1-4.6,3.1l0,0L6.1,28.7L6.1,28.7z"/>
	</g>
</g>
</svg>
